<?xml version="1.0" encoding="UTF-8" standalone="no"?>
<!DOCTYPE svg PUBLIC "-//W3C//DTD SVG 1.1//EN" "http://www.w3.org/Graphics/SVG/1.1/DTD/svg11.dtd">
<svg width="100%" height="100%" viewBox="0 0 16 16" version="1.1" xmlns="http://www.w3.org/2000/svg" xml:space="preserve"
     style="fill-rule:evenodd;clip-rule:evenodd;stroke-linejoin:round;stroke-miterlimit:2;">
    <g id="Ebene2">
        <path d="M10.983,13.5L10.983,13.999L5.002,13.999L5.002,13.001L3.782,13.001L3.782,12.003L3.002,12.003L3.002,8L5.002,8L5.002,3.005L6.497,3.005L6.497,8.003L6.813,8.003L6.843,6.002L8,6.002L8,8.003L8.988,8.003L8.988,6.002L9.986,6.002L9.986,8.003L10.653,8.003L10.653,3.799L11.343,3.799L11.343,4.007L12.004,4.007L12.004,13.001L11.343,13.001L11.343,13.5L10.983,13.5Z" style="fill:white;"/>
    </g>
    <g id="Ebene1">
        <path d="M11,14.002L5,14.002L5,15L11,15L11,14.002ZM11.983,13.001L10.983,13.001L10.983,13.999L11.983,13.999L11.983,13.001ZM3.002,13.001L3.002,12.003L4.002,12.003L4.002,13.001L5,13.001L5,13.999L4,13.999L4,13.001L3.002,13.001ZM13,4.007L12.004,4.007L12.004,13.001L13,13.001L13,4.007ZM3.002,8.003L2.006,8.003L2.006,12.003L3.002,12.003L3.002,8.003ZM5.002,10.025L4.005,10.025L4.005,8L3.007,8L3.007,7.002L4.005,7.002L4.005,3.005L5.002,3.005L5.002,2L6.994,2L6.994,5.004L7.992,5.004L7.992,6.002L6.994,6.002L6.994,8L5.998,8L5.998,3.005L5.002,3.005L5.002,10.025ZM8.988,6.002L7.992,6.002L7.992,8L8.988,8L8.988,6.002ZM9.986,5.001L9.986,3.005L10.983,3.005L10.983,3.009L11.981,3.009L11.981,4.007L10.983,4.007L10.983,8L9.986,8L9.986,6.002L10.129,6.002L8.988,6.002L8.988,5.001L9.986,5.001Z"/>
    </g>
</svg>
